<?xml version="1.0" encoding="utf-8"?>
<!-- Generator: Adobe Illustrator 24.3.0, SVG Export Plug-In . SVG Version: 6.00 Build 0)  -->
<svg version="1.1"
	 id="svg40" inkscape:version="1.0.2 (e86c870879, 2021-01-15)" sodipodi:docname="icon_calendar_karpicko.svg" xmlns:cc="http://creativecommons.org/ns#" xmlns:dc="http://purl.org/dc/elements/1.1/" xmlns:inkscape="http://www.inkscape.org/namespaces/inkscape" xmlns:rdf="http://www.w3.org/1999/02/22-rdf-syntax-ns#" xmlns:sodipodi="http://sodipodi.sourceforge.net/DTD/sodipodi-0.dtd" xmlns:svg="http://www.w3.org/2000/svg"
	 xmlns="http://www.w3.org/2000/svg" xmlns:xlink="http://www.w3.org/1999/xlink" x="0px" y="0px" viewBox="0 0 512 512"
	 style="enable-background:new 0 0 512 512;" xml:space="preserve">
<style type="text/css">
	.st0{fill:#1F0D07;}
</style>
<sodipodi:namedview  bordercolor="#666666" borderopacity="1" gridtolerance="10" guidetolerance="10" id="namedview42" inkscape:current-layer="svg40" inkscape:cx="256" inkscape:cy="256" inkscape:pageopacity="0" inkscape:pageshadow="2" inkscape:window-height="1017" inkscape:window-maximized="1" inkscape:window-width="1920" inkscape:window-x="-8" inkscape:window-y="-8" inkscape:zoom="1.6601562" objecttolerance="10" pagecolor="#ffffff" showgrid="false">
	</sodipodi:namedview>
<g id="g38">
	<g id="g6">
		<path id="path2" class="st0" d="M486.4,34.1h-59.7V8.5c0-4.7-3.8-8.5-8.5-8.5h-59.7c-4.7,0-8.5,3.8-8.5,8.5v25.6H162.1V8.5
			c0-4.7-3.8-8.5-8.5-8.5H93.9c-4.7,0-8.5,3.8-8.5,8.5v25.6H25.6c-4.7,0-8.5,3.8-8.5,8.5v93.9v366.9c0,4.7,3.8,8.5,8.5,8.5h460.8
			c4.7,0,8.5-3.8,8.5-8.5V136.5V42.7C494.9,37.9,491.1,34.1,486.4,34.1z M366.9,17.1h42.7v25.6v25.6h-42.7V42.7V17.1z M102.4,17.1
			h42.7v25.6v25.6h-42.7V42.7V17.1z M34.1,51.2h51.2v25.6c0,4.7,3.8,8.5,8.5,8.5h59.7c4.7,0,8.5-3.8,8.5-8.5V51.2h187.7v25.6
			c0,4.7,3.8,8.5,8.5,8.5h59.7c4.7,0,8.5-3.8,8.5-8.5V51.2h51.2V128H34.1V51.2z M34.1,494.9V145.1h443.7v349.9H34.1z"/>
		<path id="path4" class="st0" d="M324.3,196.3h-59.7h-17.1h-59.7h-17.1H93.9v76.8v17.1v59.7v17.1v76.8h76.8h17.1h59.7h17.1h59.7
			h17.1h76.8v-76.8v-17.1v-59.7v-17.1v-76.8h-76.8H324.3z M264.5,213.3h59.7v59.7h-59.7V213.3z M324.3,349.9h-59.7v-59.7h59.7V349.9
			z M187.7,290.1h59.7v59.7h-59.7V290.1z M187.7,213.3h59.7v59.7h-59.7V213.3z M110.9,213.3h59.7v59.7h-59.7V213.3z M110.9,290.1
			h59.7v59.7h-59.7V290.1z M170.7,426.7h-59.7v-59.7h59.7V426.7z M247.5,426.7h-59.7v-59.7h59.7V426.7z M324.3,426.7h-59.7v-59.7
			h59.7V426.7z M401.1,426.7h-59.7v-59.7h59.7V426.7z M401.1,349.9h-59.7v-59.7h59.7V349.9z M401.1,213.3v59.7h-59.7v-59.7H401.1z"
			/>
	</g>
	<g id="g8">
	</g>
	<g id="g10">
	</g>
	<g id="g12">
	</g>
	<g id="g14">
	</g>
	<g id="g16">
	</g>
	<g id="g18">
	</g>
	<g id="g20">
	</g>
	<g id="g22">
	</g>
	<g id="g24">
	</g>
	<g id="g26">
	</g>
	<g id="g28">
	</g>
	<g id="g30">
	</g>
	<g id="g32">
	</g>
	<g id="g34">
	</g>
	<g id="g36">
	</g>
</g>
</svg>
