<?xml version="1.0" encoding="UTF-8" standalone="no"?>
<svg
   xmlns:dc="http://purl.org/dc/elements/1.1/"
   xmlns:cc="http://creativecommons.org/ns#"
   xmlns:rdf="http://www.w3.org/1999/02/22-rdf-syntax-ns#"
   xmlns:svg="http://www.w3.org/2000/svg"
   xmlns="http://www.w3.org/2000/svg"
   xmlns:sodipodi="http://sodipodi.sourceforge.net/DTD/sodipodi-0.dtd"
   xmlns:inkscape="http://www.inkscape.org/namespaces/inkscape"
   version="1.1"
   width="512"
   height="512"
   x="0"
   y="0"
   viewBox="0 0 52 52"
   style="enable-background:new 0 0 512 512"
   xml:space="preserve"
   class=""
   id="svg42"
   sodipodi:docname="info_karpicko.svg"
   inkscape:version="1.0.2 (e86c870879, 2021-01-15)"><metadata
     id="metadata48"><rdf:RDF><cc:Work
         rdf:about=""><dc:format>image/svg+xml</dc:format><dc:type
           rdf:resource="http://purl.org/dc/dcmitype/StillImage" /></cc:Work></rdf:RDF></metadata><defs
     id="defs46" /><sodipodi:namedview
     pagecolor="#ffffff"
     bordercolor="#666666"
     borderopacity="1"
     objecttolerance="10"
     gridtolerance="10"
     guidetolerance="10"
     inkscape:pageopacity="0"
     inkscape:pageshadow="2"
     inkscape:window-width="1920"
     inkscape:window-height="1017"
     id="namedview44"
     showgrid="false"
     inkscape:zoom="1.6601562"
     inkscape:cx="256"
     inkscape:cy="256"
     inkscape:window-x="-8"
     inkscape:window-y="-8"
     inkscape:window-maximized="1"
     inkscape:current-layer="svg42" /><g
     id="g40"
     style="fill:#1d131f;fill-opacity:1">
<g
   id="g8"
   style="fill:#1d131f;fill-opacity:1">
	<path
   d="M26,0C11.663,0,0,11.663,0,26s11.663,26,26,26s26-11.663,26-26S40.337,0,26,0z M26,50C12.767,50,2,39.233,2,26   S12.767,2,26,2s24,10.767,24,24S39.233,50,26,50z"
   fill="#1976d2"
   data-original="#000000"
   style="fill:#1d131f;fill-opacity:1"
   class=""
   id="path2" />
	<path
   d="M26,37c-0.553,0-1,0.447-1,1v2c0,0.553,0.447,1,1,1s1-0.447,1-1v-2C27,37.447,26.553,37,26,37z"
   fill="#1976d2"
   data-original="#000000"
   style="fill:#1d131f;fill-opacity:1"
   class=""
   id="path4" />
	<path
   d="M26.113,9.001C26.075,9.001,26.037,9,25.998,9c-2.116,0-4.106,0.815-5.615,2.304C18.847,12.819,18,14.842,18,17   c0,0.553,0.447,1,1,1s1-0.447,1-1c0-1.618,0.635-3.136,1.787-4.272c1.153-1.137,2.688-1.765,4.299-1.727   c3.161,0.044,5.869,2.752,5.913,5.913c0.029,2.084-0.999,4.002-2.751,5.132C26.588,23.762,25,26.794,25,30.158V33   c0,0.553,0.447,1,1,1s1-0.447,1-1v-2.842c0-2.642,1.276-5.105,3.332-6.432c2.335-1.506,3.706-4.063,3.667-6.84   C33.939,12.599,30.401,9.061,26.113,9.001z"
   fill="#1976d2"
   data-original="#000000"
   style="fill:#1d131f;fill-opacity:1"
   class=""
   id="path6" />
</g>
<g
   id="g10"
   style="fill:#1d131f;fill-opacity:1">
</g>
<g
   id="g12"
   style="fill:#1d131f;fill-opacity:1">
</g>
<g
   id="g14"
   style="fill:#1d131f;fill-opacity:1">
</g>
<g
   id="g16"
   style="fill:#1d131f;fill-opacity:1">
</g>
<g
   id="g18"
   style="fill:#1d131f;fill-opacity:1">
</g>
<g
   id="g20"
   style="fill:#1d131f;fill-opacity:1">
</g>
<g
   id="g22"
   style="fill:#1d131f;fill-opacity:1">
</g>
<g
   id="g24"
   style="fill:#1d131f;fill-opacity:1">
</g>
<g
   id="g26"
   style="fill:#1d131f;fill-opacity:1">
</g>
<g
   id="g28"
   style="fill:#1d131f;fill-opacity:1">
</g>
<g
   id="g30"
   style="fill:#1d131f;fill-opacity:1">
</g>
<g
   id="g32"
   style="fill:#1d131f;fill-opacity:1">
</g>
<g
   id="g34"
   style="fill:#1d131f;fill-opacity:1">
</g>
<g
   id="g36"
   style="fill:#1d131f;fill-opacity:1">
</g>
<g
   id="g38"
   style="fill:#1d131f;fill-opacity:1">
</g>
</g></svg>
