<?xml version="1.0" encoding="utf-8"?>
<!-- Generator: Adobe Illustrator 24.3.0, SVG Export Plug-In . SVG Version: 6.00 Build 0)  -->
<svg version="1.1"
	 id="svg62" inkscape:version="1.0.2 (e86c870879, 2021-01-15)" sodipodi:docname="map-location_karpicko.svg" xmlns:cc="http://creativecommons.org/ns#" xmlns:dc="http://purl.org/dc/elements/1.1/" xmlns:inkscape="http://www.inkscape.org/namespaces/inkscape" xmlns:rdf="http://www.w3.org/1999/02/22-rdf-syntax-ns#" xmlns:sodipodi="http://sodipodi.sourceforge.net/DTD/sodipodi-0.dtd" xmlns:svg="http://www.w3.org/2000/svg"
	 xmlns="http://www.w3.org/2000/svg" xmlns:xlink="http://www.w3.org/1999/xlink" x="0px" y="0px" viewBox="0 0 512 512"
	 style="enable-background:new 0 0 512 512;" xml:space="preserve">
<style type="text/css">
	.st0{fill:#1F0D07;}
</style>
<sodipodi:namedview  bordercolor="#666666" borderopacity="1" gridtolerance="10" guidetolerance="10" id="namedview64" inkscape:current-layer="svg62" inkscape:cx="256" inkscape:cy="256" inkscape:pageopacity="0" inkscape:pageshadow="2" inkscape:window-height="1017" inkscape:window-maximized="1" inkscape:window-width="1920" inkscape:window-x="-8" inkscape:window-y="-8" inkscape:zoom="1.6601562" objecttolerance="10" pagecolor="#ffffff" showgrid="false">
	</sodipodi:namedview>
<g id="g60">
	<g id="g28">
		<path id="path2" class="st0" d="M481,214.2H379.6c-5.1,0-9.3,4.2-9.3,9.3s4.2,9.3,9.3,9.3h84.7l27,251.3H21.1l31.7-251.3h84.9
			c5.1,0,9.3-4.2,9.3-9.3s-4.2-9.3-9.3-9.3H36.4L0,502.7h512L481,214.2z"/>
		<path id="path4" class="st0" d="M248,362.6c-1.4,0.8-2.8,1.5-4.1,2.4c-2,1.3-4,2.7-6,4.1c-4.1,3-5,8.9-2,13
			c1.8,2.5,4.7,3.8,7.5,3.8c1.9,0,3.8-0.6,5.5-1.8c1.7-1.2,3.3-2.4,5.1-3.5c3-1.9,6.2-3.8,9.4-5.4c4.4-2.2,6.1-7.4,4.3-11.8
			c0.1-0.1,0.2-0.1,0.2-0.2c16.8-17.8,73.6-84.6,97.1-196c4.8-22.6,5.8-44.2,3.2-64.4c-8-61.2-46-93.5-109.9-93.5
			c-63.9,0-101.9,32.3-109.9,93.5c-2.6,20.2-1.6,41.8,3.2,64.4C174.8,277.5,230.6,344.1,248,362.6z M166.8,105.3
			c6.8-52,36.8-77.3,91.5-77.3c54.7,0,84.7,25.3,91.5,77.3c2.4,18.1,1.4,37.6-2.9,58.1c-21.1,100.1-71.5,163.6-88.5,182.8
			c-17.1-19.3-67.4-82.8-88.5-182.8C165.4,142.9,164.4,123.4,166.8,105.3z"/>
		<path id="path6" class="st0" d="M258.3,185.4c37.7,0,68.4-30.7,68.4-68.4S296,48.7,258.3,48.7s-68.4,30.7-68.4,68.4
			S220.6,185.4,258.3,185.4z M258.3,67.3c27.4,0,49.8,22.3,49.8,49.8s-22.3,49.8-49.8,49.8s-49.8-22.3-49.8-49.8
			S230.9,67.3,258.3,67.3z"/>
		<path id="path8" class="st0" d="M292.5,345.9c-5,1.1-8.2,6-7.2,11c0.9,4.4,4.8,7.4,9.1,7.4c0.6,0,1.3-0.1,2-0.2
			c5.5-1.2,11.4-2.1,17.6-2.9c5.1-0.6,8.7-5.3,8.1-10.4c-0.6-5.1-5.2-8.8-10.4-8.1C304.9,343.6,298.5,344.6,292.5,345.9z"/>
		<path id="path10" class="st0" d="M340.6,349.7c0.2,5,4.3,8.9,9.3,8.9c0.1,0,0.3,0,0.4,0l18.6-0.8c5.1-0.2,9.1-4.6,8.9-9.7
			c-0.2-5.1-5-9.2-9.7-8.9l-18.6,0.8C344.4,340.2,340.4,344.5,340.6,349.7z"/>
		<path id="path12" class="st0" d="M208.8,392.5c-4.8,3.6-9.7,7.1-14.7,10.3c-4.3,2.8-5.5,8.6-2.7,12.9c1.8,2.7,4.8,4.2,7.8,4.2
			c1.7,0,3.5-0.5,5.1-1.5c5.3-3.5,10.6-7.2,15.8-11.1c4.1-3.1,4.9-8.9,1.8-13C218.7,390.3,212.9,389.4,208.8,392.5z"/>
		<path id="path14" class="st0" d="M416.2,331.1c-3.1,2.2-7.2,3.8-12.5,4.9c-5,1-8.3,6-7.2,11c0.9,4.4,4.8,7.4,9.1,7.4
			c0.6,0,1.3-0.1,1.9-0.2c7.8-1.6,14.2-4.2,19.5-7.9l1.2-0.9c4.1-3.1,4.9-8.9,1.8-13c-3.1-4.1-8.9-4.9-13-1.8L416.2,331.1z"/>
		<path id="path16" class="st0" d="M82.5,403.9c1.3-5-1.6-10.1-6.6-11.4c-4.9-1.4-10.1,1.6-11.4,6.6c-1.2,4.3-1.9,8.7-2.1,13.1
			c0,1.1-0.1,2.1-0.1,3.3c0,1.8,0.1,3.6,0.3,5.5c0.5,4.8,4.5,8.4,9.3,8.4c0.3,0,0.6,0,1,0c5.1-0.5,8.8-5.1,8.3-10.2
			c-0.1-1.2-0.2-2.5-0.2-3.6c0-0.8,0-1.5,0.1-2.3C81.2,410,81.6,406.9,82.5,403.9z"/>
		<path id="path18" class="st0" d="M416,258.8c-7.4-1-14.9-0.4-22.2,1.7c-5,1.4-7.8,6.5-6.4,11.5c1.2,4.1,4.9,6.8,8.9,6.8
			c0.8,0,1.7-0.1,2.5-0.4c4.8-1.4,9.8-1.8,14.7-1.1c5.2,0.7,9.8-2.9,10.5-8C424.6,264.2,421.1,259.5,416,258.8z"/>
		<path id="path20" class="st0" d="M434.5,304.9c-1.5,4.9,1.2,10.1,6.1,11.6c0.9,0.3,1.8,0.4,2.7,0.4c4,0,7.7-2.6,8.9-6.6
			c0.9-3,1.5-6,1.7-9c0-0.8,0.1-1.6,0.1-2.3c0-4.4-0.8-8.7-2.4-13c-1.8-4.8-7.2-7.3-12-5.5c-4.8,1.8-7.3,7.1-5.5,12
			c0.8,2.2,1.2,4.3,1.2,6.5l0,1.1C435.3,301.7,435,303.3,434.5,304.9z"/>
		<path id="path22" class="st0" d="M162.7,420.3c-5.5,2.6-11,4.9-16.5,7.1c-4.8,1.8-7.2,7.2-5.3,12c1.4,3.7,4.9,6,8.7,6
			c1.1,0,2.3-0.2,3.4-0.6c5.9-2.3,11.9-4.8,17.7-7.6c4.7-2.2,6.7-7.7,4.5-12.4C172.9,420.1,167.4,418.1,162.7,420.3z"/>
		<path id="path24" class="st0" d="M94.9,381.6c1.5,0,3-0.4,4.4-1.1c2.7-1.5,5.5-2.4,8.5-2.7c1.3-0.1,2.5-0.1,3.8,0
			c5.2,0.7,9.8-2.9,10.4-8c0.7-5.1-2.9-9.8-8-10.4c-2.8-0.4-5.6-0.4-8.3-0.1c-5.3,0.6-10.5,2.2-15.3,4.8c-4.5,2.5-6.2,8.1-3.7,12.6
			C88.4,379.8,91.6,381.6,94.9,381.6z"/>
		<path id="path26" class="st0" d="M93,454.5c2,0.5,4.1,0.9,6.1,1.2c2.4,0.3,4.8,0.4,7.2,0.4c2.9,0,5.8-0.2,8.7-0.6
			c5.1-0.6,8.7-5.3,8.1-10.4c-0.7-5.1-5.3-8.7-10.4-8.1c-3.8,0.5-7.6,0.6-11.3,0.1c-1.2-0.2-2.5-0.4-3.7-0.7
			c-5-1.3-10.1,1.7-11.4,6.7C85,448.2,88,453.2,93,454.5z"/>
	</g>
	<g id="g30">
	</g>
	<g id="g32">
	</g>
	<g id="g34">
	</g>
	<g id="g36">
	</g>
	<g id="g38">
	</g>
	<g id="g40">
	</g>
	<g id="g42">
	</g>
	<g id="g44">
	</g>
	<g id="g46">
	</g>
	<g id="g48">
	</g>
	<g id="g50">
	</g>
	<g id="g52">
	</g>
	<g id="g54">
	</g>
	<g id="g56">
	</g>
	<g id="g58">
	</g>
</g>
</svg>
