<?xml version="1.0" encoding="UTF-8" standalone="no"?>
<svg
   xmlns:dc="http://purl.org/dc/elements/1.1/"
   xmlns:cc="http://creativecommons.org/ns#"
   xmlns:rdf="http://www.w3.org/1999/02/22-rdf-syntax-ns#"
   xmlns:svg="http://www.w3.org/2000/svg"
   xmlns="http://www.w3.org/2000/svg"
   xmlns:sodipodi="http://sodipodi.sourceforge.net/DTD/sodipodi-0.dtd"
   xmlns:inkscape="http://www.inkscape.org/namespaces/inkscape"
   version="1.1"
   width="512"
   height="512"
   x="0"
   y="0"
   viewBox="0 0 60 60"
   style="enable-background:new 0 0 512 512"
   xml:space="preserve"
   class=""
   id="svg98"
   sodipodi:docname="hourglass_karpicko.svg"
   inkscape:version="1.0.2 (e86c870879, 2021-01-15)"><metadata
     id="metadata104"><rdf:RDF><cc:Work
         rdf:about=""><dc:format>image/svg+xml</dc:format><dc:type
           rdf:resource="http://purl.org/dc/dcmitype/StillImage" /></cc:Work></rdf:RDF></metadata><defs
     id="defs102" /><sodipodi:namedview
     pagecolor="#ffffff"
     bordercolor="#666666"
     borderopacity="1"
     objecttolerance="10"
     gridtolerance="10"
     guidetolerance="10"
     inkscape:pageopacity="0"
     inkscape:pageshadow="2"
     inkscape:window-width="1920"
     inkscape:window-height="1017"
     id="namedview100"
     showgrid="false"
     inkscape:zoom="1.6601562"
     inkscape:cx="256"
     inkscape:cy="256"
     inkscape:window-x="-8"
     inkscape:window-y="-8"
     inkscape:window-maximized="1"
     inkscape:current-layer="svg98" /><g
     id="g96"
     style="fill:#1d131f;fill-opacity:1">
<g
   id="g64"
   style="fill:#1d131f;fill-opacity:1">
	<path
   d="M50,54h-5v-6c0-7.591-4.147-14.44-10.714-18C40.853,26.44,45,19.591,45,12V6h5c1.654,0,3-1.346,3-3s-1.346-3-3-3H10   C8.346,0,7,1.346,7,3s1.346,3,3,3h5v6c0,7.591,4.147,14.44,10.714,18C19.147,33.56,15,40.409,15,48v6h-5c-1.654,0-3,1.346-3,3   s1.346,3,3,3h40c1.654,0,3-1.346,3-3S51.654,54,50,54z M10,4C9.449,4,9,3.552,9,3s0.449-1,1-1h40c0.551,0,1,0.448,1,1s-0.449,1-1,1   h-5H15H10z M17,12V6h26v6c0,7.427-4.391,14.078-11.203,17h-3.595C21.391,26.078,17,19.427,17,12z M17,48   c0-7.427,4.391-14.078,11.203-17h3.595C38.609,33.922,43,40.573,43,48v6c0-0.552-0.448-1-1-1s-1,0.448-1,1h-2c0-0.552-0.448-1-1-1   s-1,0.448-1,1h-2c0-0.552-0.448-1-1-1s-1,0.448-1,1h-2c0-0.552-0.448-1-1-1s-1,0.448-1,1h-2c0-0.552-0.448-1-1-1s-1,0.448-1,1h-2   c0-0.552-0.448-1-1-1s-1,0.448-1,1h-2c0-0.552-0.448-1-1-1s-1,0.448-1,1V48z M50,58H10c-0.551,0-1-0.448-1-1s0.449-1,1-1h5h30h5   c0.551,0,1,0.448,1,1S50.551,58,50,58z"
   fill="#1976d2"
   data-original="#000000"
   style="fill:#1d131f;fill-opacity:1"
   class=""
   id="path2" />
	<circle
   cx="20"
   cy="52"
   r="1"
   fill="#1976d2"
   data-original="#000000"
   style="fill:#1d131f;fill-opacity:1"
   class=""
   id="circle4" />
	<circle
   cx="24"
   cy="52"
   r="1"
   fill="#1976d2"
   data-original="#000000"
   style="fill:#1d131f;fill-opacity:1"
   class=""
   id="circle6" />
	<circle
   cx="28"
   cy="52"
   r="1"
   fill="#1976d2"
   data-original="#000000"
   style="fill:#1d131f;fill-opacity:1"
   class=""
   id="circle8" />
	<circle
   cx="32"
   cy="52"
   r="1"
   fill="#1976d2"
   data-original="#000000"
   style="fill:#1d131f;fill-opacity:1"
   class=""
   id="circle10" />
	<circle
   cx="36"
   cy="52"
   r="1"
   fill="#1976d2"
   data-original="#000000"
   style="fill:#1d131f;fill-opacity:1"
   class=""
   id="circle12" />
	<circle
   cx="40"
   cy="52"
   r="1"
   fill="#1976d2"
   data-original="#000000"
   style="fill:#1d131f;fill-opacity:1"
   class=""
   id="circle14" />
	<circle
   cx="22"
   cy="50"
   r="1"
   fill="#1976d2"
   data-original="#000000"
   style="fill:#1d131f;fill-opacity:1"
   class=""
   id="circle16" />
	<circle
   cx="26"
   cy="50"
   r="1"
   fill="#1976d2"
   data-original="#000000"
   style="fill:#1d131f;fill-opacity:1"
   class=""
   id="circle18" />
	<circle
   cx="30"
   cy="33"
   r="1"
   fill="#1976d2"
   data-original="#000000"
   style="fill:#1d131f;fill-opacity:1"
   class=""
   id="circle20" />
	<circle
   cx="24"
   cy="22"
   r="1"
   fill="#1976d2"
   data-original="#000000"
   style="fill:#1d131f;fill-opacity:1"
   class=""
   id="circle22" />
	<circle
   cx="28"
   cy="22"
   r="1"
   fill="#1976d2"
   data-original="#000000"
   style="fill:#1d131f;fill-opacity:1"
   class=""
   id="circle24" />
	<circle
   cx="32"
   cy="22"
   r="1"
   fill="#1976d2"
   data-original="#000000"
   style="fill:#1d131f;fill-opacity:1"
   class=""
   id="circle26" />
	<circle
   cx="36"
   cy="22"
   r="1"
   fill="#1976d2"
   data-original="#000000"
   style="fill:#1d131f;fill-opacity:1"
   class=""
   id="circle28" />
	<circle
   cx="34"
   cy="20"
   r="1"
   fill="#1976d2"
   data-original="#000000"
   style="fill:#1d131f;fill-opacity:1"
   class=""
   id="circle30" />
	<circle
   cx="36"
   cy="18"
   r="1"
   fill="#1976d2"
   data-original="#000000"
   style="fill:#1d131f;fill-opacity:1"
   class=""
   id="circle32" />
	<circle
   cx="26"
   cy="20"
   r="1"
   fill="#1976d2"
   data-original="#000000"
   style="fill:#1d131f;fill-opacity:1"
   class=""
   id="circle34" />
	<circle
   cx="30"
   cy="20"
   r="1"
   fill="#1976d2"
   data-original="#000000"
   style="fill:#1d131f;fill-opacity:1"
   class=""
   id="circle36" />
	<circle
   cx="24"
   cy="18"
   r="1"
   fill="#1976d2"
   data-original="#000000"
   style="fill:#1d131f;fill-opacity:1"
   class=""
   id="circle38" />
	<circle
   cx="26"
   cy="24"
   r="1"
   fill="#1976d2"
   data-original="#000000"
   style="fill:#1d131f;fill-opacity:1"
   class=""
   id="circle40" />
	<circle
   cx="28"
   cy="26"
   r="1"
   fill="#1976d2"
   data-original="#000000"
   style="fill:#1d131f;fill-opacity:1"
   class=""
   id="circle42" />
	<circle
   cx="32"
   cy="26"
   r="1"
   fill="#1976d2"
   data-original="#000000"
   style="fill:#1d131f;fill-opacity:1"
   class=""
   id="circle44" />
	<circle
   cx="30"
   cy="24"
   r="1"
   fill="#1976d2"
   data-original="#000000"
   style="fill:#1d131f;fill-opacity:1"
   class=""
   id="circle46" />
	<circle
   cx="34"
   cy="24"
   r="1"
   fill="#1976d2"
   data-original="#000000"
   style="fill:#1d131f;fill-opacity:1"
   class=""
   id="circle48" />
	<circle
   cx="30"
   cy="36"
   r="1"
   fill="#1976d2"
   data-original="#000000"
   style="fill:#1d131f;fill-opacity:1"
   class=""
   id="circle50" />
	<circle
   cx="30"
   cy="39"
   r="1"
   fill="#1976d2"
   data-original="#000000"
   style="fill:#1d131f;fill-opacity:1"
   class=""
   id="circle52" />
	<circle
   cx="30"
   cy="42"
   r="1"
   fill="#1976d2"
   data-original="#000000"
   style="fill:#1d131f;fill-opacity:1"
   class=""
   id="circle54" />
	<circle
   cx="30"
   cy="45"
   r="1"
   fill="#1976d2"
   data-original="#000000"
   style="fill:#1d131f;fill-opacity:1"
   class=""
   id="circle56" />
	<circle
   cx="30"
   cy="48"
   r="1"
   fill="#1976d2"
   data-original="#000000"
   style="fill:#1d131f;fill-opacity:1"
   class=""
   id="circle58" />
	<circle
   cx="34"
   cy="50"
   r="1"
   fill="#1976d2"
   data-original="#000000"
   style="fill:#1d131f;fill-opacity:1"
   class=""
   id="circle60" />
	<circle
   cx="38"
   cy="50"
   r="1"
   fill="#1976d2"
   data-original="#000000"
   style="fill:#1d131f;fill-opacity:1"
   class=""
   id="circle62" />
</g>
<g
   id="g66"
   style="fill:#1d131f;fill-opacity:1">
</g>
<g
   id="g68"
   style="fill:#1d131f;fill-opacity:1">
</g>
<g
   id="g70"
   style="fill:#1d131f;fill-opacity:1">
</g>
<g
   id="g72"
   style="fill:#1d131f;fill-opacity:1">
</g>
<g
   id="g74"
   style="fill:#1d131f;fill-opacity:1">
</g>
<g
   id="g76"
   style="fill:#1d131f;fill-opacity:1">
</g>
<g
   id="g78"
   style="fill:#1d131f;fill-opacity:1">
</g>
<g
   id="g80"
   style="fill:#1d131f;fill-opacity:1">
</g>
<g
   id="g82"
   style="fill:#1d131f;fill-opacity:1">
</g>
<g
   id="g84"
   style="fill:#1d131f;fill-opacity:1">
</g>
<g
   id="g86"
   style="fill:#1d131f;fill-opacity:1">
</g>
<g
   id="g88"
   style="fill:#1d131f;fill-opacity:1">
</g>
<g
   id="g90"
   style="fill:#1d131f;fill-opacity:1">
</g>
<g
   id="g92"
   style="fill:#1d131f;fill-opacity:1">
</g>
<g
   id="g94"
   style="fill:#1d131f;fill-opacity:1">
</g>
</g></svg>
