<?xml version="1.0" encoding="UTF-8" standalone="no"?>
<svg
   xmlns:dc="http://purl.org/dc/elements/1.1/"
   xmlns:cc="http://creativecommons.org/ns#"
   xmlns:rdf="http://www.w3.org/1999/02/22-rdf-syntax-ns#"
   xmlns:svg="http://www.w3.org/2000/svg"
   xmlns="http://www.w3.org/2000/svg"
   xmlns:sodipodi="http://sodipodi.sourceforge.net/DTD/sodipodi-0.dtd"
   xmlns:inkscape="http://www.inkscape.org/namespaces/inkscape"
   version="1.1"
   width="512"
   height="512"
   x="0"
   y="0"
   viewBox="0 0 60 60"
   style="enable-background:new 0 0 512 512"
   xml:space="preserve"
   class=""
   id="svg40"
   sodipodi:docname="icon_calendar_karpicko.svg"
   inkscape:version="1.0.2 (e86c870879, 2021-01-15)"><metadata
     id="metadata46"><rdf:RDF><cc:Work
         rdf:about=""><dc:format>image/svg+xml</dc:format><dc:type
           rdf:resource="http://purl.org/dc/dcmitype/StillImage" /></cc:Work></rdf:RDF></metadata><defs
     id="defs44" /><sodipodi:namedview
     pagecolor="#ffffff"
     bordercolor="#666666"
     borderopacity="1"
     objecttolerance="10"
     gridtolerance="10"
     guidetolerance="10"
     inkscape:pageopacity="0"
     inkscape:pageshadow="2"
     inkscape:window-width="1920"
     inkscape:window-height="1017"
     id="namedview42"
     showgrid="false"
     inkscape:zoom="1.6601562"
     inkscape:cx="256"
     inkscape:cy="256"
     inkscape:window-x="-8"
     inkscape:window-y="-8"
     inkscape:window-maximized="1"
     inkscape:current-layer="svg40" /><g
     id="g38"
     style="fill:#1d131f;fill-opacity:1">
<g
   id="g6"
   style="fill:#1d131f;fill-opacity:1">
	<path
   d="M57,4h-7V1c0-0.553-0.447-1-1-1h-7c-0.553,0-1,0.447-1,1v3H19V1c0-0.553-0.447-1-1-1h-7c-0.553,0-1,0.447-1,1v3H3   C2.447,4,2,4.447,2,5v11v43c0,0.553,0.447,1,1,1h54c0.553,0,1-0.447,1-1V16V5C58,4.447,57.553,4,57,4z M43,2h5v3v3h-5V5V2z M12,2h5   v3v3h-5V5V2z M4,6h6v3c0,0.553,0.447,1,1,1h7c0.553,0,1-0.447,1-1V6h22v3c0,0.553,0.447,1,1,1h7c0.553,0,1-0.447,1-1V6h6v9H4V6z    M4,58V17h52v41H4z"
   fill="#1976d2"
   data-original="#000000"
   style="fill:#1d131f;fill-opacity:1"
   class=""
   id="path2" />
	<path
   d="M38,23h-7h-2h-7h-2h-9v9v2v7v2v9h9h2h7h2h7h2h9v-9v-2v-7v-2v-9h-9H38z M31,25h7v7h-7V25z M38,41h-7v-7h7V41z M22,34h7v7h-7   V34z M22,25h7v7h-7V25z M13,25h7v7h-7V25z M13,34h7v7h-7V34z M20,50h-7v-7h7V50z M29,50h-7v-7h7V50z M38,50h-7v-7h7V50z M47,50h-7   v-7h7V50z M47,41h-7v-7h7V41z M47,25v7h-7v-7H47z"
   fill="#1976d2"
   data-original="#000000"
   style="fill:#1d131f;fill-opacity:1"
   class=""
   id="path4" />
</g>
<g
   id="g8"
   style="fill:#1d131f;fill-opacity:1">
</g>
<g
   id="g10"
   style="fill:#1d131f;fill-opacity:1">
</g>
<g
   id="g12"
   style="fill:#1d131f;fill-opacity:1">
</g>
<g
   id="g14"
   style="fill:#1d131f;fill-opacity:1">
</g>
<g
   id="g16"
   style="fill:#1d131f;fill-opacity:1">
</g>
<g
   id="g18"
   style="fill:#1d131f;fill-opacity:1">
</g>
<g
   id="g20"
   style="fill:#1d131f;fill-opacity:1">
</g>
<g
   id="g22"
   style="fill:#1d131f;fill-opacity:1">
</g>
<g
   id="g24"
   style="fill:#1d131f;fill-opacity:1">
</g>
<g
   id="g26"
   style="fill:#1d131f;fill-opacity:1">
</g>
<g
   id="g28"
   style="fill:#1d131f;fill-opacity:1">
</g>
<g
   id="g30"
   style="fill:#1d131f;fill-opacity:1">
</g>
<g
   id="g32"
   style="fill:#1d131f;fill-opacity:1">
</g>
<g
   id="g34"
   style="fill:#1d131f;fill-opacity:1">
</g>
<g
   id="g36"
   style="fill:#1d131f;fill-opacity:1">
</g>
</g></svg>
