<?xml version="1.0" encoding="utf-8"?>
<!-- Generator: Adobe Illustrator 24.3.0, SVG Export Plug-In . SVG Version: 6.00 Build 0)  -->
<svg version="1.1"
	 id="svg98" inkscape:version="1.0.2 (e86c870879, 2021-01-15)" sodipodi:docname="hourglass_karpicko.svg" xmlns:cc="http://creativecommons.org/ns#" xmlns:dc="http://purl.org/dc/elements/1.1/" xmlns:inkscape="http://www.inkscape.org/namespaces/inkscape" xmlns:rdf="http://www.w3.org/1999/02/22-rdf-syntax-ns#" xmlns:sodipodi="http://sodipodi.sourceforge.net/DTD/sodipodi-0.dtd" xmlns:svg="http://www.w3.org/2000/svg"
	 xmlns="http://www.w3.org/2000/svg" xmlns:xlink="http://www.w3.org/1999/xlink" x="0px" y="0px" viewBox="0 0 512 512"
	 style="enable-background:new 0 0 512 512;" xml:space="preserve">
<style type="text/css">
	.st0{fill:#1F0D07;}
</style>
<sodipodi:namedview  bordercolor="#666666" borderopacity="1" gridtolerance="10" guidetolerance="10" id="namedview100" inkscape:current-layer="svg98" inkscape:cx="256" inkscape:cy="256" inkscape:pageopacity="0" inkscape:pageshadow="2" inkscape:window-height="1017" inkscape:window-maximized="1" inkscape:window-width="1920" inkscape:window-x="-8" inkscape:window-y="-8" inkscape:zoom="1.6601562" objecttolerance="10" pagecolor="#ffffff" showgrid="false">
	</sodipodi:namedview>
<g id="g96">
	<g id="g64">
		<path id="path2" class="st0" d="M426.7,460.8H384v-51.2c0-64.8-35.4-123.2-91.4-153.6c56-30.4,91.4-88.8,91.4-153.6V51.2h42.7
			c14.1,0,25.6-11.5,25.6-25.6S440.8,0,426.7,0H85.3C71.2,0,59.7,11.5,59.7,25.6s11.5,25.6,25.6,25.6H128v51.2
			c0,64.8,35.4,123.2,91.4,153.6c-56,30.4-91.4,88.8-91.4,153.6v51.2H85.3c-14.1,0-25.6,11.5-25.6,25.6S71.2,512,85.3,512h341.3
			c14.1,0,25.6-11.5,25.6-25.6S440.8,460.8,426.7,460.8z M85.3,34.1c-4.7,0-8.5-3.8-8.5-8.5s3.8-8.5,8.5-8.5h341.3
			c4.7,0,8.5,3.8,8.5,8.5s-3.8,8.5-8.5,8.5H384H128H85.3z M145.1,102.4V51.2h221.9v51.2c0,63.4-37.5,120.1-95.6,145.1h-30.7
			C182.5,222.5,145.1,165.8,145.1,102.4z M145.1,409.6c0-63.4,37.5-120.1,95.6-145.1h30.7c58.1,24.9,95.6,81.7,95.6,145.1v51.2
			c0-4.7-3.8-8.5-8.5-8.5s-8.5,3.8-8.5,8.5h-17.1c0-4.7-3.8-8.5-8.5-8.5s-8.5,3.8-8.5,8.5h-17.1c0-4.7-3.8-8.5-8.5-8.5
			c-4.7,0-8.5,3.8-8.5,8.5h-17.1c0-4.7-3.8-8.5-8.5-8.5c-4.7,0-8.5,3.8-8.5,8.5h-17.1c0-4.7-3.8-8.5-8.5-8.5c-4.7,0-8.5,3.8-8.5,8.5
			h-17.1c0-4.7-3.8-8.5-8.5-8.5c-4.7,0-8.5,3.8-8.5,8.5h-17.1c0-4.7-3.8-8.5-8.5-8.5s-8.5,3.8-8.5,8.5V409.6z M426.7,494.9H85.3
			c-4.7,0-8.5-3.8-8.5-8.5s3.8-8.5,8.5-8.5H128h256h42.7c4.7,0,8.5,3.8,8.5,8.5S431.4,494.9,426.7,494.9z"/>
		<circle id="circle4" class="st0" cx="170.7" cy="443.7" r="8.5"/>
		<circle id="circle6" class="st0" cx="204.8" cy="443.7" r="8.5"/>
		<circle id="circle8" class="st0" cx="238.9" cy="443.7" r="8.5"/>
		<circle id="circle10" class="st0" cx="273.1" cy="443.7" r="8.5"/>
		<circle id="circle12" class="st0" cx="307.2" cy="443.7" r="8.5"/>
		<circle id="circle14" class="st0" cx="341.3" cy="443.7" r="8.5"/>
		<circle id="circle16" class="st0" cx="187.7" cy="426.7" r="8.5"/>
		<circle id="circle18" class="st0" cx="221.9" cy="426.7" r="8.5"/>
		<circle id="circle20" class="st0" cx="256" cy="281.6" r="8.5"/>
		<circle id="circle22" class="st0" cx="204.8" cy="187.7" r="8.5"/>
		<circle id="circle24" class="st0" cx="238.9" cy="187.7" r="8.5"/>
		<circle id="circle26" class="st0" cx="273.1" cy="187.7" r="8.5"/>
		<circle id="circle28" class="st0" cx="307.2" cy="187.7" r="8.5"/>
		<circle id="circle30" class="st0" cx="290.1" cy="170.7" r="8.5"/>
		<circle id="circle32" class="st0" cx="307.2" cy="153.6" r="8.5"/>
		<circle id="circle34" class="st0" cx="221.9" cy="170.7" r="8.5"/>
		<circle id="circle36" class="st0" cx="256" cy="170.7" r="8.5"/>
		<circle id="circle38" class="st0" cx="204.8" cy="153.6" r="8.5"/>
		<circle id="circle40" class="st0" cx="221.9" cy="204.8" r="8.5"/>
		<circle id="circle42" class="st0" cx="238.9" cy="221.9" r="8.5"/>
		<circle id="circle44" class="st0" cx="273.1" cy="221.9" r="8.5"/>
		<circle id="circle46" class="st0" cx="256" cy="204.8" r="8.5"/>
		<circle id="circle48" class="st0" cx="290.1" cy="204.8" r="8.5"/>
		<circle id="circle50" class="st0" cx="256" cy="307.2" r="8.5"/>
		<circle id="circle52" class="st0" cx="256" cy="332.8" r="8.5"/>
		<circle id="circle54" class="st0" cx="256" cy="358.4" r="8.5"/>
		<circle id="circle56" class="st0" cx="256" cy="384" r="8.5"/>
		<circle id="circle58" class="st0" cx="256" cy="409.6" r="8.5"/>
		<circle id="circle60" class="st0" cx="290.1" cy="426.7" r="8.5"/>
		<circle id="circle62" class="st0" cx="324.3" cy="426.7" r="8.5"/>
	</g>
	<g id="g66">
	</g>
	<g id="g68">
	</g>
	<g id="g70">
	</g>
	<g id="g72">
	</g>
	<g id="g74">
	</g>
	<g id="g76">
	</g>
	<g id="g78">
	</g>
	<g id="g80">
	</g>
	<g id="g82">
	</g>
	<g id="g84">
	</g>
	<g id="g86">
	</g>
	<g id="g88">
	</g>
	<g id="g90">
	</g>
	<g id="g92">
	</g>
	<g id="g94">
	</g>
</g>
</svg>
