<?xml version="1.0" encoding="utf-8"?>
<!-- Generator: Adobe Illustrator 24.3.0, SVG Export Plug-In . SVG Version: 6.00 Build 0)  -->
<svg version="1.1"
	 id="svg42" inkscape:version="1.0.2 (e86c870879, 2021-01-15)" sodipodi:docname="info_karpicko.svg" xmlns:cc="http://creativecommons.org/ns#" xmlns:dc="http://purl.org/dc/elements/1.1/" xmlns:inkscape="http://www.inkscape.org/namespaces/inkscape" xmlns:rdf="http://www.w3.org/1999/02/22-rdf-syntax-ns#" xmlns:sodipodi="http://sodipodi.sourceforge.net/DTD/sodipodi-0.dtd" xmlns:svg="http://www.w3.org/2000/svg"
	 xmlns="http://www.w3.org/2000/svg" xmlns:xlink="http://www.w3.org/1999/xlink" x="0px" y="0px" viewBox="0 0 512 512"
	 style="enable-background:new 0 0 512 512;" xml:space="preserve">
<style type="text/css">
	.st0{fill:#1F0D07;}
</style>
<sodipodi:namedview  bordercolor="#666666" borderopacity="1" gridtolerance="10" guidetolerance="10" id="namedview44" inkscape:current-layer="svg42" inkscape:cx="256" inkscape:cy="256" inkscape:pageopacity="0" inkscape:pageshadow="2" inkscape:window-height="1017" inkscape:window-maximized="1" inkscape:window-width="1920" inkscape:window-x="-8" inkscape:window-y="-8" inkscape:zoom="1.6601562" objecttolerance="10" pagecolor="#ffffff" showgrid="false">
	</sodipodi:namedview>
<g id="g40">
	<g id="g8">
		<path id="path2" class="st0" d="M256,0C114.8,0,0,114.8,0,256s114.8,256,256,256s256-114.8,256-256S397.2,0,256,0z M256,492.3
			c-130.3,0-236.3-106-236.3-236.3S125.7,19.7,256,19.7s236.3,106,236.3,236.3S386.3,492.3,256,492.3z"/>
		<path id="path4" class="st0" d="M256,364.3c-5.4,0-9.8,4.4-9.8,9.8v19.7c0,5.4,4.4,9.8,9.8,9.8s9.8-4.4,9.8-9.8v-19.7
			C265.8,368.7,261.4,364.3,256,364.3z"/>
		<path id="path6" class="st0" d="M257.1,88.6c-0.4,0-0.7,0-1.1,0c-20.8,0-40.4,8-55.3,22.7c-15.1,14.9-23.5,34.8-23.5,56.1
			c0,5.4,4.4,9.8,9.8,9.8s9.8-4.4,9.8-9.8c0-15.9,6.3-30.9,17.6-42.1c11.4-11.2,26.5-17.4,42.3-17c31.1,0.4,57.8,27.1,58.2,58.2
			c0.3,20.5-9.8,39.4-27.1,50.5c-26.2,16.9-41.8,46.7-41.8,79.9v28c0,5.4,4.4,9.8,9.8,9.8s9.8-4.4,9.8-9.8v-28
			c0-26,12.6-50.3,32.8-63.3c23-14.8,36.5-40,36.1-67.3C334.2,124.1,299.3,89.2,257.1,88.6z"/>
	</g>
	<g id="g10">
	</g>
	<g id="g12">
	</g>
	<g id="g14">
	</g>
	<g id="g16">
	</g>
	<g id="g18">
	</g>
	<g id="g20">
	</g>
	<g id="g22">
	</g>
	<g id="g24">
	</g>
	<g id="g26">
	</g>
	<g id="g28">
	</g>
	<g id="g30">
	</g>
	<g id="g32">
	</g>
	<g id="g34">
	</g>
	<g id="g36">
	</g>
	<g id="g38">
	</g>
</g>
</svg>
